<?xml version="1.0" encoding="UTF-8" standalone="no"?>
<!DOCTYPE svg PUBLIC "-//W3C//DTD SVG 1.1//EN"
 "http://www.w3.org/Graphics/SVG/1.1/DTD/svg11.dtd">
<!-- Generated by graphviz version 2.40.1 (20161225.0304)
 -->
<!-- Title: Card Pages: 1 -->
<svg width="371pt" height="412pt"
 viewBox="0.00 0.00 371.00 412.00" xmlns="http://www.w3.org/2000/svg" xmlns:xlink="http://www.w3.org/1999/xlink">
<g id="graph0" class="graph" transform="scale(1 1) rotate(0) translate(4 408)">
<title>Card</title>
<polygon fill="#ffffff" stroke="transparent" points="-4,4 -4,-408 367,-408 367,4 -4,4"/>
<!-- Card -->
<g id="node1" class="node">
<title>Card</title>
<polygon fill="#efefef" stroke="transparent" points="166,-322.5 166,-357.5 316,-357.5 316,-322.5 166,-322.5"/>
<polygon fill="none" stroke="#000000" points="166,-322.5 166,-357.5 316,-357.5 316,-322.5 166,-322.5"/>
<text text-anchor="start" x="172.8737" y="-335.3" font-family="Arial Bold" font-size="18.00" fill="#000000">Card</text>
<text text-anchor="start" x="211.8725" y="-335.3" font-family="Arial" font-size="14.00" fill="#000000"> </text>
<text text-anchor="start" x="215.7631" y="-335.3" font-family="Arial" font-size="14.00" fill="#666666">[BASE TABLE]</text>
<polygon fill="none" stroke="#000000" points="166,-292.5 166,-322.5 316,-322.5 316,-292.5 166,-292.5"/>
<text text-anchor="start" x="173" y="-303.9" font-family="Arial" font-size="14.00" fill="#000000">id </text>
<text text-anchor="start" x="187.7798" y="-303.9" font-family="Arial" font-size="14.00" fill="#666666">[varchar(255)]</text>
<polygon fill="none" stroke="#000000" points="166,-262.5 166,-292.5 316,-292.5 316,-262.5 166,-262.5"/>
<text text-anchor="start" x="172.5463" y="-273.9" font-family="Arial" font-size="14.00" fill="#000000">user_id </text>
<text text-anchor="start" x="222.3345" y="-273.9" font-family="Arial" font-size="14.00" fill="#666666">[varchar(255)]</text>
<polygon fill="none" stroke="#000000" stroke-width="3" points="164.5,-261.5 164.5,-359.5 317.5,-359.5 317.5,-261.5 164.5,-261.5"/>
</g>
<!-- Users -->
<g id="node2" class="node">
<title>Users</title>
<polygon fill="#efefef" stroke="transparent" points="162,-102.5 162,-137.5 320,-137.5 320,-102.5 162,-102.5"/>
<polygon fill="none" stroke="#000000" points="162,-102.5 162,-137.5 320,-137.5 320,-102.5 162,-102.5"/>
<text text-anchor="start" x="168.8768" y="-115.3" font-family="Arial Bold" font-size="18.00" fill="#000000">Users</text>
<text text-anchor="start" x="215.8694" y="-115.3" font-family="Arial" font-size="14.00" fill="#000000"> </text>
<text text-anchor="start" x="219.76" y="-115.3" font-family="Arial" font-size="14.00" fill="#666666">[BASE TABLE]</text>
<polygon fill="none" stroke="#000000" points="162,-72.5 162,-102.5 320,-102.5 320,-72.5 162,-72.5"/>
<text text-anchor="start" x="169" y="-83.9" font-family="Arial" font-size="14.00" fill="#000000">id </text>
<text text-anchor="start" x="183.7798" y="-83.9" font-family="Arial" font-size="14.00" fill="#666666">[varchar(255)]</text>
<polygon fill="none" stroke="#000000" points="162,-42.5 162,-72.5 320,-72.5 320,-42.5 162,-42.5"/>
<text text-anchor="start" x="169" y="-53.9" font-family="Arial" font-size="14.00" fill="#000000">name </text>
<text text-anchor="start" x="207.899" y="-53.9" font-family="Arial" font-size="14.00" fill="#666666">[varchar(255)]</text>
</g>
<!-- Card&#45;&gt;Users -->
<g id="edge1" class="edge">
<title>Card:user_id&#45;&gt;Users:id</title>
<path fill="none" stroke="#000000" d="M241.9511,-252.3083C249.6884,-214.0403 302.4643,-224.2852 320,-181 335.6032,-142.485 361.5556,-87.5 320,-87.5"/>
<polygon fill="#000000" stroke="#000000" points="241.9293,-252.5433 236.5195,-262.0818 241.4646,-257.5216 241,-262.5 241,-262.5 241,-262.5 241.4646,-257.5216 245.4805,-262.9182 241.9293,-252.5433 241.9293,-252.5433"/>
<text text-anchor="start" x="7.115" y="-272.5" font-family="Arial" font-size="10.00" fill="#000000">FOREIGN KEY (user_id) REFERENCES Users (id)</text>
</g>
</g>
</svg>
