<?xml version="1.0" encoding="UTF-8" standalone="no"?>
<!DOCTYPE svg PUBLIC "-//W3C//DTD SVG 1.1//EN"
 "http://www.w3.org/Graphics/SVG/1.1/DTD/svg11.dtd">
<!-- Generated by graphviz version 2.40.1 (20161225.0304)
 -->
<!-- Title: db Pages: 1 -->
<svg width="371pt" height="406pt"
 viewBox="0.00 0.00 371.00 406.00" xmlns="http://www.w3.org/2000/svg" xmlns:xlink="http://www.w3.org/1999/xlink">
<g id="graph0" class="graph" transform="scale(1 1) rotate(0) translate(4 402)">
<title>db</title>
<polygon fill="#ffffff" stroke="transparent" points="-4,4 -4,-402 367,-402 367,4 -4,4"/>
<!-- Card -->
<g id="node1" class="node">
<title>Card</title>
<polygon fill="#efefef" stroke="transparent" points="166,-319.5 166,-354.5 316,-354.5 316,-319.5 166,-319.5"/>
<polygon fill="none" stroke="#000000" points="166,-319.5 166,-354.5 316,-354.5 316,-319.5 166,-319.5"/>
<text text-anchor="start" x="172.8737" y="-332.3" font-family="Arial Bold" font-size="18.00" fill="#000000">Card</text>
<text text-anchor="start" x="211.8725" y="-332.3" font-family="Arial" font-size="14.00" fill="#000000"> </text>
<text text-anchor="start" x="215.7631" y="-332.3" font-family="Arial" font-size="14.00" fill="#666666">[BASE TABLE]</text>
<polygon fill="none" stroke="#000000" points="166,-289.5 166,-319.5 316,-319.5 316,-289.5 166,-289.5"/>
<text text-anchor="start" x="173" y="-300.9" font-family="Arial" font-size="14.00" fill="#000000">id </text>
<text text-anchor="start" x="187.7798" y="-300.9" font-family="Arial" font-size="14.00" fill="#666666">[varchar(255)]</text>
<polygon fill="none" stroke="#000000" points="166,-259.5 166,-289.5 316,-289.5 316,-259.5 166,-259.5"/>
<text text-anchor="start" x="172.5463" y="-270.9" font-family="Arial" font-size="14.00" fill="#000000">user_id </text>
<text text-anchor="start" x="222.3345" y="-270.9" font-family="Arial" font-size="14.00" fill="#666666">[varchar(255)]</text>
</g>
<!-- Users -->
<g id="node2" class="node">
<title>Users</title>
<polygon fill="#efefef" stroke="transparent" points="162,-102.5 162,-137.5 320,-137.5 320,-102.5 162,-102.5"/>
<polygon fill="none" stroke="#000000" points="162,-102.5 162,-137.5 320,-137.5 320,-102.5 162,-102.5"/>
<text text-anchor="start" x="168.8768" y="-115.3" font-family="Arial Bold" font-size="18.00" fill="#000000">Users</text>
<text text-anchor="start" x="215.8694" y="-115.3" font-family="Arial" font-size="14.00" fill="#000000"> </text>
<text text-anchor="start" x="219.76" y="-115.3" font-family="Arial" font-size="14.00" fill="#666666">[BASE TABLE]</text>
<polygon fill="none" stroke="#000000" points="162,-72.5 162,-102.5 320,-102.5 320,-72.5 162,-72.5"/>
<text text-anchor="start" x="169" y="-83.9" font-family="Arial" font-size="14.00" fill="#000000">id </text>
<text text-anchor="start" x="183.7798" y="-83.9" font-family="Arial" font-size="14.00" fill="#666666">[varchar(255)]</text>
<polygon fill="none" stroke="#000000" points="162,-42.5 162,-72.5 320,-72.5 320,-42.5 162,-42.5"/>
<text text-anchor="start" x="169" y="-53.9" font-family="Arial" font-size="14.00" fill="#000000">name </text>
<text text-anchor="start" x="207.899" y="-53.9" font-family="Arial" font-size="14.00" fill="#666666">[varchar(255)]</text>
</g>
<!-- Card&#45;&gt;Users -->
<g id="edge1" class="edge">
<title>Card:user_id&#45;&gt;Users:id</title>
<path fill="none" stroke="#000000" d="M241.95,-249.5203C249.6784,-212.1371 302.3967,-223.308 320,-181 335.9635,-142.633 361.5556,-87.5 320,-87.5"/>
<polygon fill="#000000" stroke="#000000" points="241.9477,-249.545 236.5203,-259.0735 241.4739,-254.5225 241,-259.5 241,-259.5 241,-259.5 241.4739,-254.5225 245.4797,-259.9265 241.9477,-249.545 241.9477,-249.545"/>
<text text-anchor="start" x="7.115" y="-269.5" font-family="Arial" font-size="10.00" fill="#000000">FOREIGN KEY (user_id) REFERENCES Users (id)</text>
</g>
</g>
</svg>
