<?xml version="1.0" encoding="UTF-8" standalone="no"?>
<!DOCTYPE svg PUBLIC "-//W3C//DTD SVG 1.1//EN"
 "http://www.w3.org/Graphics/SVG/1.1/DTD/svg11.dtd">
<!-- Generated by graphviz version 2.40.1 (20161225.0304)
 -->
<!-- Title: Users Pages: 1 -->
<svg width="374pt" height="412pt"
 viewBox="0.00 0.00 374.00 412.00" xmlns="http://www.w3.org/2000/svg" xmlns:xlink="http://www.w3.org/1999/xlink">
<g id="graph0" class="graph" transform="scale(1 1) rotate(0) translate(4 408)">
<title>Users</title>
<polygon fill="#ffffff" stroke="transparent" points="-4,4 -4,-408 370,-408 370,4 -4,4"/>
<!-- Users -->
<g id="node1" class="node">
<title>Users</title>
<polygon fill="#efefef" stroke="transparent" points="162,-105.5 162,-140.5 320,-140.5 320,-105.5 162,-105.5"/>
<polygon fill="none" stroke="#000000" points="162,-105.5 162,-140.5 320,-140.5 320,-105.5 162,-105.5"/>
<text text-anchor="start" x="168.8768" y="-118.3" font-family="Arial Bold" font-size="18.00" fill="#000000">Users</text>
<text text-anchor="start" x="215.8694" y="-118.3" font-family="Arial" font-size="14.00" fill="#000000"> </text>
<text text-anchor="start" x="219.76" y="-118.3" font-family="Arial" font-size="14.00" fill="#666666">[BASE TABLE]</text>
<polygon fill="none" stroke="#000000" points="162,-75.5 162,-105.5 320,-105.5 320,-75.5 162,-75.5"/>
<text text-anchor="start" x="169" y="-86.9" font-family="Arial" font-size="14.00" fill="#000000">id </text>
<text text-anchor="start" x="183.7798" y="-86.9" font-family="Arial" font-size="14.00" fill="#666666">[varchar(255)]</text>
<polygon fill="none" stroke="#000000" points="162,-45.5 162,-75.5 320,-75.5 320,-45.5 162,-45.5"/>
<text text-anchor="start" x="169" y="-56.9" font-family="Arial" font-size="14.00" fill="#000000">name </text>
<text text-anchor="start" x="207.899" y="-56.9" font-family="Arial" font-size="14.00" fill="#666666">[varchar(255)]</text>
<polygon fill="none" stroke="#000000" stroke-width="3" points="160.5,-44.5 160.5,-142.5 321.5,-142.5 321.5,-44.5 160.5,-44.5"/>
</g>
<!-- Card -->
<g id="node2" class="node">
<title>Card</title>
<polygon fill="#efefef" stroke="transparent" points="166,-325.5 166,-360.5 316,-360.5 316,-325.5 166,-325.5"/>
<polygon fill="none" stroke="#000000" points="166,-325.5 166,-360.5 316,-360.5 316,-325.5 166,-325.5"/>
<text text-anchor="start" x="172.8737" y="-338.3" font-family="Arial Bold" font-size="18.00" fill="#000000">Card</text>
<text text-anchor="start" x="211.8725" y="-338.3" font-family="Arial" font-size="14.00" fill="#000000"> </text>
<text text-anchor="start" x="215.7631" y="-338.3" font-family="Arial" font-size="14.00" fill="#666666">[BASE TABLE]</text>
<polygon fill="none" stroke="#000000" points="166,-295.5 166,-325.5 316,-325.5 316,-295.5 166,-295.5"/>
<text text-anchor="start" x="173" y="-306.9" font-family="Arial" font-size="14.00" fill="#000000">id </text>
<text text-anchor="start" x="187.7798" y="-306.9" font-family="Arial" font-size="14.00" fill="#666666">[varchar(255)]</text>
<polygon fill="none" stroke="#000000" points="166,-265.5 166,-295.5 316,-295.5 316,-265.5 166,-265.5"/>
<text text-anchor="start" x="172.5463" y="-276.9" font-family="Arial" font-size="14.00" fill="#000000">user_id </text>
<text text-anchor="start" x="222.3345" y="-276.9" font-family="Arial" font-size="14.00" fill="#666666">[varchar(255)]</text>
</g>
<!-- Card&#45;&gt;Users -->
<g id="edge1" class="edge">
<title>Card:user_id&#45;&gt;Users:id</title>
<path fill="none" stroke="#000000" d="M241.95,-255.5203C249.6784,-218.1371 302.3967,-229.308 320,-187 336.4757,-147.4019 362.8889,-90.5 320,-90.5"/>
<polygon fill="#000000" stroke="#000000" points="241.9477,-255.545 236.5203,-265.0735 241.4739,-260.5225 241,-265.5 241,-265.5 241,-265.5 241.4739,-260.5225 245.4797,-265.9265 241.9477,-255.545 241.9477,-255.545"/>
<text text-anchor="start" x="7.115" y="-275.5" font-family="Arial" font-size="10.00" fill="#000000">FOREIGN KEY (user_id) REFERENCES Users (id)</text>
</g>
</g>
</svg>
